<svg width="60" height="60" viewBox="0 0 60 60" fill="none" xmlns="http://www.w3.org/2000/svg">
<mask id="mask0_1_84" style="mask-type:alpha" maskUnits="userSpaceOnUse" x="0" y="0" width="60" height="60">
<rect width="60" height="60" fill="#D9D9D9"/>
</mask>
<g mask="url(#mask0_1_84)">
<path d="M49.885 33.7371L48.7296 34.4034C48.1823 34.7191 47.5083 34.5349 47.189 33.9824L34.0611 11.2711C33.7417 10.7187 33.919 10.0435 34.4663 9.72789L35.6217 9.06158C36.169 8.74596 36.843 8.93015 37.1623 9.48258L50.3257 32.2553C50.6095 32.7463 50.4322 33.4215 49.885 33.7371Z" stroke="#097BBD" stroke-width="1.5" stroke-miterlimit="10"/>
<path d="M19.7095 39.7946C18.579 39.9529 17.4333 39.381 16.8272 38.3343L14.7238 34.7015C13.9038 33.2853 14.3619 31.5437 15.7672 30.7346L21.8773 27.2168L26.9041 35.8986" stroke="#097BBD" stroke-width="1.5" stroke-miterlimit="10"/>
<path d="M16.4554 39.8629L17.3703 39.3359L14.4173 34.234L13.5024 34.761C12.7095 35.2176 12.4299 36.2802 12.8924 37.0793L14.1732 39.2922C14.6357 40.0913 15.6014 40.3547 16.4554 39.8629Z" stroke="#097BBD" stroke-width="1.5" stroke-miterlimit="10"/>
<path d="M34.9544 12.8828L21.9371 27.2168" stroke="#097BBD" stroke-width="1.5" stroke-miterlimit="10"/>
<path d="M46.4902 32.8564C46.4187 32.733 26.9395 35.8881 26.9395 35.8881" stroke="#097BBD" stroke-width="1.5" stroke-miterlimit="10"/>
<path d="M3.96513 54.7305L4.03108 52.3109C4.07179 51.9589 4.20928 51.6334 4.51488 51.4574L11.0546 46.7067C11.5079 46.3636 12.2108 46.4516 12.5572 46.9092L18.3341 53.9309C18.6449 54.3269 18.6857 54.9604 18.3292 55.3299L17.7741 56.0601C17.5398 56.3593 17.1985 56.4736 16.8827 56.4912L4.99417 55.9447C4.44914 55.8479 4.00594 55.364 3.96513 54.7305Z" stroke="#0F1C31" stroke-width="1.5" stroke-miterlimit="10"/>
<path d="M12.3165 46.5597L14.1863 45.1549C14.4555 44.9178 14.9027 44.9881 15.1416 45.2603L20.5946 51.8728C20.8335 52.145 20.7674 52.5928 20.4982 52.8299L18.6995 54.3577" stroke="#0F1C31" stroke-width="1.5" stroke-miterlimit="10"/>
<path d="M22.9375 42.7258L26.3474 48.6213C26.9157 49.6039 28.2047 50.0074 29.2399 49.4107" stroke="#097BBD" stroke-width="1.5" stroke-miterlimit="10" stroke-linecap="round"/>
<path d="M33.5382 45.3794L30.1717 47.3184C29.4371 47.7415 28.468 47.4772 28.0395 46.7369C27.6111 45.9966 27.8661 45.0272 28.6007 44.6041L31.9673 42.6651C32.7018 42.2421 33.6709 42.5064 34.0994 43.2467C34.5891 43.9517 34.334 44.9211 33.5382 45.3794Z" stroke="#0F1C31" stroke-width="1.5" stroke-miterlimit="10" stroke-linecap="round"/>
<path d="M35.1249 48.5526L31.7583 50.4916C31.0238 50.9146 30.0546 50.6503 29.6262 49.9101C29.1977 49.1698 29.4528 48.2004 30.1873 47.7773L33.5539 45.8383C34.2885 45.4152 35.2576 45.6796 35.686 46.4198C36.1145 47.1601 35.8594 48.1295 35.1249 48.5526Z" stroke="#0F1C31" stroke-width="1.5" stroke-miterlimit="10" stroke-linecap="round"/>
<path d="M29.6745 40.3893L30.4091 39.9663C31.1436 39.5432 32.1127 39.8075 32.5412 40.5478C32.9696 41.2881 32.7146 42.2575 31.98 42.6806L28.6134 44.6196C27.8789 45.0426 26.9098 44.7783 26.4813 44.038C26.3385 43.7913 26.2212 43.4476 26.2977 43.1568" stroke="#0F1C31" stroke-width="1.5" stroke-miterlimit="10" stroke-linecap="round"/>
<path d="M27.2349 37.136L28.5177 36.3974C29.2508 35.9753 30.2536 36.3006 30.7524 37.1622C31.2513 38.0238 31.0324 39.0524 30.2993 39.4745L29.6274 39.8614" stroke="#0F1C31" stroke-width="1.5" stroke-miterlimit="10" stroke-linecap="round"/>
<path d="M30.1961 51.0755C29.7675 51.3224 27.9921 52.345 26.7065 53.0856C25.9106 53.544 24.9974 53.6587 24.0893 53.359L20.916 52.3895" stroke="#0F1C31" stroke-width="1.5" stroke-miterlimit="10" stroke-linecap="round"/>
<path d="M46.3843 18.8937L51.1678 16.1319" stroke="#097BBD" stroke-width="1.5" stroke-miterlimit="10" stroke-linecap="round"/>
<path d="M43.142 13.2499L45.9447 6.54335" stroke="#097BBD" stroke-width="1.5" stroke-miterlimit="10" stroke-linecap="round"/>
<path d="M49.7131 24.6431L56.5871 25.5316" stroke="#097BBD" stroke-width="1.5" stroke-miterlimit="10" stroke-linecap="round"/>
<path d="M15.5583 45.3491L19.1773 40.199C20.1816 38.77 21.4868 37.5775 23.0017 36.7052L24.2303 35.9977C25.1873 35.4466 26.4117 35.7746 26.965 36.7304L29.0687 40.3645C29.6042 41.2894 29.2984 42.4521 28.3807 42.9806C27.4631 43.509 26.3006 43.1918 25.7651 42.2669L25.0155 40.9719C24.9084 40.787 24.6433 40.6108 24.4495 40.5579L24.1946 40.5403C23.8428 40.4962 23.5369 40.6723 23.3993 40.9982C23.0986 41.7469 22.4869 43.0858 21.1767 43.9225" stroke="#0F1C31" stroke-width="1.5" stroke-miterlimit="10" stroke-linecap="round"/>
</g>
</svg>
