<svg width="60" height="60" viewBox="0 0 60 60" fill="none" xmlns="http://www.w3.org/2000/svg">
<g clip-path="url(#clip0_1_56)">
<path d="M45.2525 12.2917V5.69446H16.4747L7.70703 14.6528V54.3056H45.2525V42.9861" stroke="#0F1C31" stroke-width="1.5" stroke-miterlimit="10" stroke-linecap="round" stroke-linejoin="round"/>
<path d="M46.6668 33.9584L49.4244 38.3334L45.6062 40.625L42.8486 36.3195" stroke="#097BBD" stroke-width="1.5" stroke-miterlimit="10" stroke-linecap="round" stroke-linejoin="round"/>
<path d="M53.4546 48.9583C51.6869 50.0694 49.3536 49.5139 48.2223 47.7083L44.2627 41.3889L50.7677 37.5L54.7273 43.8194C55.7879 45.5556 55.293 47.8472 53.4546 48.9583Z" stroke="#097BBD" stroke-width="1.5" stroke-miterlimit="10" stroke-linecap="round" stroke-linejoin="round"/>
<path d="M8.55566 14.8611H16.6163V5.69446" stroke="#0F1C31" stroke-width="1.5" stroke-miterlimit="10" stroke-linecap="round" stroke-linejoin="round"/>
<path d="M11.7373 34.375H22.7676" stroke="#0F1C31" stroke-width="1.5" stroke-miterlimit="10" stroke-linecap="round" stroke-linejoin="round"/>
<path d="M11.7373 37.5695H22.7676" stroke="#0F1C31" stroke-width="1.5" stroke-miterlimit="10" stroke-linecap="round" stroke-linejoin="round"/>
<path d="M12.5151 50.8334H40.3737" stroke="#097BBD" stroke-width="1.5" stroke-miterlimit="10" stroke-linecap="round" stroke-linejoin="round"/>
<path d="M18.1719 45.9028H14.1416V50.8333H18.1719V45.9028Z" stroke="#097BBD" stroke-width="1.5" stroke-miterlimit="10" stroke-linecap="round" stroke-linejoin="round"/>
<path d="M25.1719 42.3611H21.1416V50.7639H25.1719V42.3611Z" stroke="#097BBD" stroke-width="1.5" stroke-miterlimit="10" stroke-linecap="round" stroke-linejoin="round"/>
<path d="M31.9595 38.8195H27.9292V50.8333H31.9595V38.8195Z" stroke="#097BBD" stroke-width="1.5" stroke-miterlimit="10" stroke-linecap="round" stroke-linejoin="round"/>
<path d="M38.7476 42.3611H34.7173V50.7639H38.7476V42.3611Z" stroke="#097BBD" stroke-width="1.5" stroke-miterlimit="10" stroke-linecap="round" stroke-linejoin="round"/>
<path d="M14.5656 29.5139C15.6981 29.5139 16.6161 28.6123 16.6161 27.5C16.6161 26.3878 15.6981 25.4861 14.5656 25.4861C13.4332 25.4861 12.5151 26.3878 12.5151 27.5C12.5151 28.6123 13.4332 29.5139 14.5656 29.5139Z" stroke="#0F1C31" stroke-width="1.5" stroke-miterlimit="10" stroke-linecap="round" stroke-linejoin="round"/>
<path d="M21.424 17.9167C22.5565 17.9167 23.4745 17.015 23.4745 15.9028C23.4745 14.7906 22.5565 13.8889 21.424 13.8889C20.2916 13.8889 19.3735 14.7906 19.3735 15.9028C19.3735 17.015 20.2916 17.9167 21.424 17.9167Z" stroke="#0F1C31" stroke-width="1.5" stroke-miterlimit="10" stroke-linecap="round" stroke-linejoin="round"/>
<path d="M34.4343 29.5139C35.5668 29.5139 36.4848 28.6123 36.4848 27.5C36.4848 26.3878 35.5668 25.4861 34.4343 25.4861C33.3018 25.4861 32.3838 26.3878 32.3838 27.5C32.3838 28.6123 33.3018 29.5139 34.4343 29.5139Z" stroke="#0F1C31" stroke-width="1.5" stroke-miterlimit="10" stroke-linecap="round" stroke-linejoin="round"/>
<path d="M40.7981 21.25C41.9305 21.25 42.8486 20.3484 42.8486 19.2361C42.8486 18.1239 41.9305 17.2222 40.7981 17.2222C39.6656 17.2222 38.7476 18.1239 38.7476 19.2361C38.7476 20.3484 39.6656 21.25 40.7981 21.25Z" stroke="#0F1C31" stroke-width="1.5" stroke-miterlimit="10" stroke-linecap="round" stroke-linejoin="round"/>
<path d="M15.6968 25.8334L20.4342 17.6389" stroke="#0F1C31" stroke-width="1.5" stroke-miterlimit="10" stroke-linecap="round" stroke-linejoin="round"/>
<path d="M22.9092 17.2223C22.9799 17.1528 24.4647 18.6806 24.4647 18.6806" stroke="#0F1C31" stroke-width="1.5" stroke-miterlimit="10" stroke-linecap="round" stroke-linejoin="round"/>
<path d="M27.8584 21.3195L32.8786 26.25" stroke="#0F1C31" stroke-width="1.5" stroke-miterlimit="10" stroke-linecap="round" stroke-linejoin="round"/>
<path d="M39.6668 20.8334L35.4951 25.8334" stroke="#0F1C31" stroke-width="1.5" stroke-miterlimit="10" stroke-linecap="round" stroke-linejoin="round"/>
<path d="M37.3334 33.3334C42.8785 33.3334 47.3738 28.9184 47.3738 23.4723C47.3738 18.0261 42.8785 13.6111 37.3334 13.6111C31.7882 13.6111 27.293 18.0261 27.293 23.4723C27.293 28.9184 31.7882 33.3334 37.3334 33.3334Z" stroke="#097BBD" stroke-width="1.5" stroke-miterlimit="10" stroke-linecap="square"/>
<path d="M37.3334 36.9444C44.9092 36.9444 51.0506 30.9127 51.0506 23.4722C51.0506 16.0317 44.9092 10 37.3334 10C29.7576 10 23.6162 16.0317 23.6162 23.4722C23.6162 30.9127 29.7576 36.9444 37.3334 36.9444Z" stroke="#097BBD" stroke-width="1.5" stroke-miterlimit="10" stroke-linecap="square"/>
</g>
<defs>
<clipPath id="clip0_1_56">
<rect width="49" height="50" fill="white" transform="translate(7 5)"/>
</clipPath>
</defs>
</svg>
