<svg width="292" height="292" viewBox="0 0 292 292" fill="none" xmlns="http://www.w3.org/2000/svg">
<path d="M146 292C65.0654 291.887 -0.113206 226.595 0.000147629 145.887C0.113502 63.9317 66.7657 0 146.114 0C225.461 0 292 64.2717 292 146C292 226.821 226.708 291.887 146 292ZM289.62 146C289.393 65.5186 223.988 2.49379 146 2.49379C67.8992 2.49379 2.49394 65.632 2.49394 146C2.49394 225.234 66.539 289.62 146.114 289.506C225.688 289.506 289.506 225.121 289.62 146Z" fill="#00629B"/>
<path d="M146 284.745C68.1258 284.519 7.25467 221.607 7.25467 146C7.25467 69.146 69.8261 7.25467 146 7.25467C222.061 7.25467 284.632 69.0326 284.745 146C284.859 221.607 223.761 284.632 146 284.745ZM146 232.036C194.742 231.809 231.922 192.248 232.036 146.113C232.149 98.8447 193.722 60.0776 146.227 59.9643C98.618 59.8509 60.0776 98.7314 60.0776 146C59.9643 192.135 97.1444 231.809 146 232.036ZM57.6972 61.2112C58.264 61.5512 58.7174 61.8913 59.1708 62.118C60.191 62.6848 61.3245 63.2516 62.3447 63.705C63.1382 64.045 63.4783 64.6118 63.8183 65.4053C64.4985 67.4457 65.2919 69.486 65.9721 71.5264C66.0854 71.7531 66.0854 72.0932 66.1988 72.4332C61.6646 70.1662 57.2438 68.0124 52.7096 65.8587C51.5761 66.9922 50.5559 68.0124 49.4224 69.2593C51.5761 70.2795 53.5031 71.1863 55.4301 72.0932C57.3572 73 59.3975 73.9068 61.3245 74.8137C63.2516 75.7205 65.2919 76.6273 67.219 77.5342C69.146 78.3276 70.9596 79.4612 73.4534 80.2547C71.7531 75.4938 70.1662 71.1863 68.4659 66.5388C73 68.3525 77.0808 70.3929 81.3882 71.9798C81.5016 71.8665 81.5016 71.7531 81.6149 71.7531C78.2143 63.9317 74.8137 56.1103 71.2997 47.9488C70.2795 48.8556 69.5994 49.6491 68.8059 50.3292C68.2391 50.7826 68.2391 51.3494 68.5792 51.9162C70.3929 55.7702 72.0932 59.6242 73.7935 63.4783C73.9068 63.8183 74.1336 64.1584 74.3603 64.7252C70.5062 62.9115 66.8789 61.3245 63.3649 59.6242C60.0777 58.1506 60.0777 58.0373 57.6972 61.2112ZM86.8292 228.295C85.9224 227.388 85.1289 226.595 84.4488 225.915C83.882 225.348 83.4286 225.234 82.7485 225.575C79.0078 227.388 75.1537 229.202 71.4131 231.016C71.073 231.242 70.7329 231.356 70.0528 231.696C70.7329 230.109 71.2997 228.862 71.7531 227.728C73 224.781 74.2469 221.834 75.6071 218.887C75.8339 218.433 76.1739 217.866 75.7205 217.413C74.927 216.62 74.2469 215.713 73.1134 215.146C72.3199 216.733 71.5264 218.32 70.7329 219.793C70.5062 220.247 70.1662 220.814 69.7127 221.04C67.219 222.061 64.7252 222.967 61.8913 224.101C62.118 223.534 62.2314 223.307 62.3447 222.967C64.1584 219.113 65.9721 215.259 67.7857 211.292C68.0124 210.839 68.1258 210.158 68.0124 209.932C67.1056 208.911 66.1988 207.891 64.8385 206.984C61.3245 215.033 57.9239 222.854 54.5233 230.675C54.6367 230.789 54.75 230.902 54.75 230.902C59.1708 229.429 63.3649 227.502 68.1258 225.801C67.559 227.161 67.219 228.182 66.7655 229.202C66.3121 230.222 65.8587 231.356 65.4053 232.376C64.9519 233.509 64.3851 234.529 64.045 235.663C63.705 236.683 62.9115 237.59 63.0249 238.95C70.9596 235.55 78.7811 232.036 86.8292 228.295ZM227.502 211.179C220.02 211.405 215.373 217.073 215.486 223.307C215.599 229.655 220.36 235.323 227.728 235.323C234.416 235.323 239.63 230.109 239.744 223.194C239.744 216.62 234.189 211.179 227.502 211.179ZM238.837 69.5994C238.837 62.7981 233.623 57.4705 227.048 57.4705C220.134 57.3571 214.693 62.6848 214.693 69.486C214.693 75.9472 219.567 81.6149 226.821 81.6149C234.53 81.6149 238.837 75.3804 238.837 69.5994ZM34.2329 96.4643C34.1196 101.905 38.3137 108.707 46.2485 108.593C53.8432 108.593 58.3773 102.472 58.3773 96.4643C58.3773 89.7764 53.0497 84.4488 46.4752 84.3354C39.6739 84.5621 34.2329 89.7764 34.2329 96.4643ZM33.3261 195.989C33.3261 202.677 38.7671 208.005 45.5683 208.005C52.2562 208.005 57.4705 202.564 57.5839 195.762C57.5839 189.528 52.7096 183.86 45.455 183.86C37.2935 183.86 33.0994 190.548 33.3261 195.989ZM114.374 26.4115C114.488 29.2453 118.115 48.5155 118.795 49.7624C121.402 49.1957 124.236 48.8556 126.843 48.1755C133.191 46.4752 136.592 40.8075 135.231 34.4596C133.984 28.9053 129.904 25.3913 124.236 25.0513C120.949 24.9379 117.775 25.8447 114.374 26.4115ZM118.568 243.371C118.342 243.711 118.342 243.825 118.228 243.938C116.868 251.079 115.621 258.221 114.261 265.362C114.148 265.815 114.261 266.155 114.261 266.609C116.868 267.062 119.248 267.629 121.742 267.969C124.009 268.309 126.276 268.196 128.43 267.175C132.851 265.248 135.345 261.281 135.231 255.953C135.231 251.079 132.511 247.112 127.977 245.411C126.276 244.731 124.576 244.505 122.762 244.051C121.402 243.825 119.929 243.598 118.568 243.371ZM254.14 208.231C254.82 206.871 255.387 205.738 255.953 204.491C253.46 203.244 251.193 202.11 248.925 200.977C249.379 198.596 250.626 197.463 253.006 197.463C254.933 197.463 256.747 197.123 258.674 196.783C259.127 196.783 259.581 196.556 259.807 196.329C260.261 195.989 261.394 193.042 261.508 192.135C258.107 192.475 254.707 192.815 251.306 193.269C251.079 192.702 250.966 192.362 250.853 191.908C249.719 188.848 247.452 187.261 244.391 186.581C241.444 185.901 239.064 187.148 237.25 189.415C235.323 191.908 234.303 194.856 232.829 197.803C239.971 201.317 246.998 204.717 254.14 208.231ZM253.12 84.2221C245.978 87.736 238.95 91.0233 231.922 94.4239C232.376 95.8975 232.829 97.0311 233.736 98.1646C236.116 97.0311 238.384 96.0109 240.764 94.8773C240.991 95.3307 241.217 95.5575 241.331 95.7842C242.238 97.1444 242.124 98.278 241.217 99.6382C239.971 101.339 238.95 103.266 237.93 105.079C237.703 105.419 237.477 106.099 237.59 106.439C238.157 107.686 238.724 108.933 239.517 110.52C241.557 107.233 243.371 104.399 245.185 101.452C246.092 101.792 246.885 102.132 247.679 102.245C248.472 102.359 249.379 102.359 250.286 102.245C254.14 101.792 258.561 98.5047 256.974 92.4969C256.18 89.663 254.593 87.1693 253.12 84.2221ZM49.8758 118.115C44.6615 120.609 39.9006 122.989 35.0264 125.37C32.3059 121.742 29.5854 118.115 26.8649 114.488C26.7516 114.488 26.6382 114.601 26.4115 114.601C26.1848 115.734 26.0714 116.981 25.7314 118.002C25.5047 118.908 25.7314 119.702 26.2981 120.382C27.6584 122.309 29.132 124.123 30.4922 126.05C31.2857 127.07 31.9659 128.203 32.8727 129.45C29.6988 128.884 26.9783 128.43 24.1444 127.863C23.691 129.45 23.3509 130.811 23.3509 132.171C25.9581 133.078 45.2283 136.592 46.5885 136.365C46.8152 135.005 47.0419 133.644 47.2686 132.284C46.8152 132.171 46.5885 132.057 46.2485 132.057C43.9814 131.604 41.8277 131.264 39.5606 130.811C38.6537 130.584 37.7469 130.357 37.5202 129.11C37.9736 128.884 38.427 128.543 38.9938 128.317C41.941 126.843 44.7749 125.37 47.7221 123.896C48.1755 123.669 48.8556 123.216 48.969 122.762C49.309 121.402 49.5357 119.929 49.8758 118.115ZM25.5047 177.966C25.618 177.966 25.7314 178.079 25.9581 178.079C29.5854 174.112 33.2127 170.258 36.8401 166.29C40.8075 168.784 44.5481 171.165 48.4022 173.545C48.5155 173.432 48.6289 173.432 48.7422 173.318C48.6289 172.298 48.4022 171.165 48.2888 170.144C48.1755 169.011 47.6087 168.331 46.7019 167.651C44.2081 166.064 41.7143 164.477 39.1072 162.776C38.6537 162.436 38.2003 162.096 37.5202 161.643C40.5808 161.076 43.4146 160.509 46.0217 159.943C46.0217 158.016 45.795 156.655 45.1149 155.408C37.5202 156.882 29.9255 158.242 22.2174 159.716C22.3308 161.416 22.5575 162.89 23.1242 164.25C25.8447 163.797 28.3385 163.343 30.8323 162.776C31.8525 162.55 32.646 162.663 33.2127 163.683C32.8727 164.023 32.5326 164.477 32.3059 164.817C30.0388 167.311 27.7718 169.804 25.5047 172.298C25.1646 172.752 24.7112 173.318 24.7112 173.772C24.8245 175.245 25.1646 176.606 25.5047 177.966ZM199.843 256.634C200.977 256.52 201.884 256.52 202.677 256.293C206.304 255.5 209.365 253.913 211.745 250.852C214.806 246.885 211.972 241.331 208.005 240.651C206.078 240.311 204.264 240.651 202.337 240.877C201.09 240.991 199.73 241.331 198.483 241.217C196.783 241.104 196.103 239.63 196.896 238.157C197.349 237.477 197.916 236.683 198.71 236.343C199.843 235.663 201.203 235.323 202.45 234.756C203.017 234.53 203.584 234.416 204.151 234.189C203.924 232.943 203.811 231.809 203.697 230.562C200.41 231.129 197.576 231.922 195.196 233.963C194.175 234.87 193.382 236.003 192.929 237.25C191.908 240.311 193.269 245.185 198.37 245.071C199.503 245.071 200.637 244.958 201.77 244.845C203.13 244.731 204.604 244.505 205.964 244.391C207.098 244.278 208.005 244.618 208.571 245.752C209.025 246.772 208.685 247.792 208.005 248.585C207.551 249.039 207.098 249.606 206.644 249.946C205.171 251.193 203.471 251.759 201.544 251.986C200.977 252.099 200.523 252.213 199.957 252.213C199.843 253.913 199.843 255.047 199.843 256.634ZM213.559 44.0947C211.065 41.0342 208.458 38.5404 204.491 38.087C202.224 37.7469 200.297 38.5404 198.823 40.1273C197.349 41.7143 196.896 43.6413 197.803 45.6817C198.37 46.8152 199.05 47.9488 199.843 48.969C200.523 49.9891 201.43 50.896 202.11 51.9162C202.564 52.5963 202.904 53.2764 203.13 54.0699C203.471 55.4301 202.564 56.5637 201.203 56.677C200.41 56.677 199.616 56.5637 198.823 56.4503C196.669 55.8835 195.082 54.5233 193.722 52.823C193.382 52.3696 193.042 52.0295 192.702 51.5761C191.568 52.3696 190.548 53.0497 189.641 53.7298C189.641 54.0699 189.641 54.1832 189.755 54.1832C189.868 54.4099 189.981 54.5233 190.095 54.75C192.362 58.0373 195.422 60.0776 199.276 60.9845C200.41 61.2112 201.77 61.2112 203.017 60.8711C206.531 59.9643 208.458 55.8835 207.098 52.3696C206.644 51.236 205.964 50.2158 205.284 49.309C204.604 48.4022 203.811 47.6087 203.13 46.5885C202.677 46.0217 202.224 45.3416 201.997 44.6615C201.43 43.4146 202.11 42.1677 203.357 41.941C203.924 41.8276 204.604 41.8276 205.057 42.0544C206.644 42.3944 208.005 43.4146 209.138 44.6615C209.705 45.2283 210.158 45.6817 210.725 46.2485C211.632 45.5683 212.539 44.8882 213.559 44.0947ZM110.18 52.4829C103.266 46.7019 96.4643 41.1475 89.5497 35.5932C89.8898 44.4348 90.4565 53.163 91.1367 62.118C91.9301 61.778 92.4969 61.5512 93.0637 61.2112C94.8773 60.3044 94.8773 60.7578 94.6506 58.264C94.5373 56.7904 94.4239 55.2034 94.3106 53.7298C96.691 52.4829 98.9581 51.3494 101.225 50.2158C103.039 51.6894 104.739 53.163 106.326 54.5233C107.8 53.7298 108.82 53.163 110.18 52.4829ZM98.7314 261.394C98.9581 260.941 98.9581 260.828 99.0714 260.714C99.6382 252.439 100.205 244.165 100.772 235.89C100.772 235.663 100.772 235.436 100.658 235.21C100.658 235.21 100.658 235.096 100.545 235.096C100.545 235.096 100.432 235.096 100.318 234.983C100.205 234.983 99.9783 235.096 99.8649 235.21C93.5171 240.537 87.0559 245.865 80.7081 251.193C80.5947 251.306 80.368 251.533 80.2547 251.646V251.759C80.2547 251.759 80.2547 251.873 80.2547 251.986C81.2749 252.553 82.4084 253.12 83.5419 253.686C85.3556 252.213 87.0559 250.852 88.7562 249.379C91.1367 250.626 93.4037 251.759 95.6708 253.006C95.6708 253.8 95.5575 254.48 95.5575 255.273C95.4441 256.52 95.3308 257.654 95.3308 258.901C95.3308 259.241 95.4441 259.807 95.7842 260.034C96.691 260.374 97.5978 260.828 98.7314 261.394ZM268.309 168.444C266.155 167.991 264.228 167.537 262.301 167.197C261.281 166.971 260.374 166.63 259.581 165.95C255.84 162.776 252.099 159.602 248.359 156.542C247.905 156.202 247.452 155.862 246.772 155.408C246.545 156.542 246.432 157.335 246.092 158.242C245.638 159.489 246.092 160.283 247.112 161.076C249.606 162.89 251.986 164.93 254.48 166.857C254.933 167.197 255.5 167.651 256.067 168.217C255.273 168.444 254.707 168.671 254.026 168.898C250.853 169.804 247.792 170.711 244.618 171.618C244.165 171.731 243.484 172.071 243.371 172.411C242.918 173.658 242.804 175.019 242.464 176.606C243.258 176.379 243.825 176.266 244.278 176.152C248.019 175.019 251.759 173.998 255.5 172.638C258.561 171.505 261.621 171.278 264.682 172.298C265.475 172.525 266.495 172.638 267.402 172.752C267.742 171.051 267.969 169.804 268.309 168.444ZM264.682 111.2C264.002 111.767 263.548 111.994 263.095 112.447C259.581 115.281 256.18 118.228 252.78 121.175C251.306 122.422 249.719 123.216 247.905 123.443C246.318 123.669 244.845 124.123 243.258 124.463C243.598 125.936 243.825 127.183 244.165 128.543C246.205 128.09 248.132 127.863 250.059 127.41C251.193 127.183 252.213 127.183 253.233 127.523C257.88 128.997 262.415 130.357 267.062 131.831C267.629 131.944 268.196 132.171 268.989 132.398C268.762 131.151 268.536 130.244 268.422 129.337C268.309 128.203 267.742 127.637 266.609 127.41C263.435 126.616 260.261 125.71 257.087 124.803C256.634 124.689 256.18 124.463 255.5 124.236C256.067 123.783 256.52 123.443 256.86 123.102C259.467 121.062 262.075 118.908 264.568 116.868C265.022 116.528 265.589 116.188 265.475 115.508C265.248 114.034 265.022 112.787 264.682 111.2ZM156.655 270.576C156.769 270.576 156.995 270.576 157.109 270.463C159.829 262.188 162.663 253.913 165.27 245.411C164.363 245.411 163.57 245.411 162.89 245.411C161.189 245.525 161.189 245.525 160.623 247.112C159.262 251.419 157.902 255.727 156.542 260.034C156.429 260.488 156.202 260.828 155.862 261.508C154.955 259.807 154.275 258.561 153.595 257.2C152.008 254.14 150.421 251.079 148.721 248.019C148.494 247.565 148.267 246.772 147.474 246.885C146.34 246.998 145.32 247.112 143.846 247.225C148.38 255.16 152.575 262.868 156.655 270.576ZM167.424 24.3711C166.517 24.2578 165.837 24.1444 165.27 24.0311C163.343 23.8044 163.343 23.8044 162.436 25.5047C160.396 29.3587 158.356 33.3261 156.315 37.1801C156.089 37.6335 155.748 38.087 155.408 38.6537C155.182 37.9736 154.955 37.5202 154.842 37.0668C153.935 34.1196 152.915 31.059 152.008 28.1118C151.554 26.7516 151.101 25.278 150.648 23.9177C150.421 23.3509 150.194 22.7842 149.514 22.7842C148.494 22.6708 147.474 22.6708 146.227 22.5575C147.247 25.618 148.04 28.3385 148.947 31.059C149.854 33.8929 150.874 36.7267 151.781 39.5606C152.688 42.2811 153.481 45.1149 154.502 47.7221C154.615 47.7221 154.728 47.7221 154.842 47.7221C159.036 39.9006 163.23 32.1926 167.424 24.3711ZM175.019 242.918C177.512 250.512 179.893 257.88 182.273 265.475C183.747 265.022 184.994 264.568 186.354 264.115C183.86 256.52 181.48 249.152 179.099 241.671C177.626 242.011 176.379 242.464 175.019 242.918ZM181.933 27.545C179.439 35.1398 177.059 42.5078 174.679 50.1025C176.039 50.5559 177.286 50.896 178.759 51.3494C181.253 43.7547 183.634 36.3867 186.014 28.7919C184.54 28.4519 183.407 28.1118 181.933 27.545Z" fill="#00629B"/>
<path d="M92.2702 85.0155C93.5171 85.0155 94.4239 85.0155 95.3308 85.0155C97.4845 85.0155 99.6382 85.1289 101.905 85.0155C103.039 85.0155 103.719 85.3556 104.286 86.2624C110.067 94.5373 115.961 102.925 121.856 111.2C129.564 121.969 137.272 132.851 144.98 143.62C145.32 144.073 145.66 144.413 146.113 145.093C146.68 144.413 147.134 143.846 147.474 143.393C155.068 132.738 162.663 122.082 170.258 111.314C176.152 103.039 182.047 94.764 187.828 86.3758C188.508 85.4689 189.188 85.0155 190.321 85.0155C193.382 85.1289 196.443 85.0155 199.73 85.0155C199.276 85.6957 198.936 86.2624 198.596 86.7158C187.714 101.905 176.832 117.095 166.064 132.398C164.137 135.118 164.137 134.211 165.724 137.045C177.172 159.262 188.734 181.366 200.183 203.584C200.523 204.151 200.75 204.717 201.09 205.511C200.07 205.511 199.276 205.511 198.596 205.511C196.216 205.511 193.835 205.398 191.455 205.511C190.208 205.511 189.641 205.171 189.075 204.037C185.334 196.669 181.593 189.415 177.853 182.16C171.505 169.804 165.157 157.449 158.809 144.98C158.469 144.3 158.129 143.733 157.562 142.713C153.708 147.814 149.967 152.688 146.113 157.675C142.146 152.688 138.519 147.814 134.551 142.713C134.098 143.506 133.758 143.96 133.531 144.526C127.75 155.635 122.082 166.857 116.301 178.079C111.88 186.694 107.46 195.309 103.152 203.924C102.585 205.057 101.905 205.511 100.658 205.511C97.5978 205.398 94.4239 205.511 91.0233 205.511C91.3634 204.717 91.5901 204.151 91.9301 203.697C97.3711 193.269 102.699 182.84 108.14 172.412C114.374 160.396 120.609 148.267 126.957 136.252C127.637 135.005 127.523 134.211 126.73 133.078C115.621 117.661 104.626 102.245 93.6305 86.7158C93.177 86.3758 92.837 85.809 92.2702 85.0155Z" fill="#00629B"/>
<path d="M144.413 205.511C141.126 205.511 138.065 205.511 134.891 205.511C134.551 204.151 134.325 153.141 134.665 146.34C135.005 146.68 135.345 147.02 135.571 147.36C138.292 150.874 140.899 154.388 143.62 157.789C144.186 158.582 144.526 159.376 144.413 160.283C144.413 174.792 144.413 189.301 144.413 203.811C144.526 204.377 144.526 204.944 144.413 205.511Z" fill="#00629B"/>
<path d="M157.222 205.511C154.048 205.511 150.874 205.511 147.587 205.511C147.587 205.057 147.474 204.604 147.474 204.151C147.474 189.528 147.474 174.792 147.474 160.169C147.474 159.489 147.7 158.696 148.04 158.242C150.874 154.388 153.821 150.648 156.769 146.907C156.882 146.793 156.995 146.68 157.222 146.567C157.222 166.177 157.222 185.787 157.222 205.511Z" fill="#00629B"/>
<path d="M147.587 85.1289C150.874 85.1289 154.048 85.1289 157.335 85.1289C157.335 85.6956 157.449 86.2624 157.449 86.8292C157.449 99.5248 157.449 112.334 157.449 125.03C157.449 125.823 157.335 126.503 156.882 127.183C154.048 131.037 151.214 135.005 148.38 138.972C148.267 139.199 148.154 139.425 148.04 139.652C147.927 139.539 147.814 139.539 147.7 139.425C147.587 121.289 147.587 103.266 147.587 85.1289Z" fill="#00629B"/>
<path d="M144.3 139.425C144.073 139.085 143.733 138.859 143.506 138.519C140.786 134.778 138.179 131.151 135.458 127.41C134.891 126.616 134.665 125.936 134.665 125.03C134.665 112.334 134.665 99.5248 134.665 86.8292C134.665 86.2624 134.665 85.809 134.778 85.1289C138.065 85.1289 141.126 85.1289 144.186 85.1289C144.3 85.2422 144.3 85.2422 144.3 85.2422L144.413 85.3556C144.413 85.5823 144.526 85.809 144.526 86.0357C144.526 103.492 144.526 121.062 144.526 138.519C144.526 138.745 144.526 138.972 144.413 139.199C144.413 139.312 144.413 139.312 144.3 139.425Z" fill="#00629B"/>
<path d="M227.728 231.129C223.307 231.129 219.567 227.502 219.567 223.081C219.567 219.453 222.174 215.373 227.275 215.259C232.376 215.259 235.436 219.34 235.436 223.421C235.55 227.842 232.149 231.129 227.728 231.129Z" fill="#00629B"/>
<path d="M218.773 69.5994C218.773 65.1786 222.514 61.5512 226.935 61.5512C231.242 61.5512 234.643 65.0652 234.643 69.3727C234.643 73.9068 230.902 77.5342 226.368 77.4208C222.061 77.4208 218.773 74.0202 218.773 69.5994Z" fill="#00629B"/>
<path d="M46.4751 104.399C41.941 104.399 38.427 100.772 38.427 96.3509C38.427 92.0435 42.0543 88.4161 46.4751 88.6428C51.3494 88.8695 54.5233 92.6102 54.4099 96.691C54.4099 101.679 50.1025 104.739 46.4751 104.399Z" fill="#00629B"/>
<path d="M53.2764 195.762C53.2764 200.183 49.6491 203.924 45.2283 203.811C40.8075 203.811 37.4068 200.297 37.4068 195.876C37.4068 191.228 41.4876 187.828 45.5683 187.941C49.8758 188.054 53.5031 191.568 53.2764 195.762Z" fill="#00629B"/>
<path d="M119.135 29.5854C120.722 29.3587 121.969 29.132 123.329 29.0186C127.75 28.7919 130.924 31.7391 131.264 36.1599C131.717 41.1475 128.657 43.5279 125.37 44.3214C124.349 44.5481 123.216 44.7748 121.969 45.0016C121.062 39.9006 120.155 34.913 119.135 29.5854Z" fill="#00629B"/>
<path d="M121.742 248.359C126.503 248.019 130.47 250.739 131.037 255.047C131.604 259.807 128.77 264.228 123.443 264.115C122.762 264.115 122.082 264.115 121.289 264.002C120.495 263.888 119.815 263.661 118.908 263.548C119.929 258.22 120.835 253.233 121.742 248.359Z" fill="#00629B"/>
<path d="M244.958 199.05C242.804 198.03 240.651 197.009 238.27 195.762C238.837 194.629 239.29 193.495 239.857 192.475C240.877 190.775 242.578 190.321 244.391 191.002C246.205 191.682 247.112 193.269 246.772 195.082C246.658 196.102 245.978 197.689 244.958 199.05Z" fill="#00629B"/>
<path d="M244.618 93.177C246.885 92.0435 249.039 91.0233 251.419 89.8898C252.213 91.25 253.006 92.6103 253.346 94.1972C253.573 95.7842 252.553 97.3711 250.853 97.9379C249.152 98.618 247.452 98.1646 246.432 96.691C246.205 96.351 246.092 96.0109 245.865 95.6708C245.412 94.8773 245.071 94.0839 244.618 93.177Z" fill="#00629B"/>
<path d="M94.0839 49.7624C93.8572 47.6087 93.7438 45.795 93.5171 43.4146C95.2174 44.8882 96.691 46.1351 98.278 47.4954C96.9177 48.2888 95.6708 48.969 94.0839 49.7624Z" fill="#00629B"/>
<path d="M96.4642 242.804C96.2375 244.958 96.1242 246.885 95.8975 249.039C94.4239 248.359 93.177 247.679 91.59 246.885C92.3835 246.092 93.177 245.525 93.8571 244.845C94.7639 244.278 95.4441 243.598 96.4642 242.804Z" fill="#00629B"/>
</svg>
